<svg width="1068" height="266" viewBox="0 0 1068 266" fill="none" xmlns="http://www.w3.org/2000/svg">
<path d="M138.178 89.5206H171.444V241.27L138.178 266V89.5206Z" fill="#61CA87"/>
<path d="M182.533 89.5206H215.799V210.752L182.533 234.455V89.5206Z" fill="#61CA87"/>
<path d="M126.238 89.5206H92.1191V240.146L126.238 266V89.5206Z" fill="#61CA87"/>
<path d="M81.0333 89.5206H47.7675V210.092L81.0333 235.308V89.5206Z" fill="#61CA87"/>
<path d="M14.5156 25.5791H133.059V82.7004H47.98C47.98 82.7004 28.3495 72.8773 21.3219 61.5655C13.7872 49.4375 14.5156 25.5791 14.5156 25.5791Z" fill="#61CA87"/>
<path d="M249.9 25.5791H133.059V82.7004H216.436C216.436 82.7004 236.066 72.8773 243.094 61.5655C250.629 49.4375 249.9 25.5791 249.9 25.5791Z" fill="#61CA87"/>
<path d="M0 0H265.273V18.7563H0V0Z" fill="#61CA87"/>
<path d="M298.83 37.9723H332.902C347.371 37.9723 357.666 39.9781 363.787 43.9895C371.578 49.0166 375.474 55.9986 375.474 64.9356C375.474 70.3689 373.981 75.0912 370.996 79.1027C368.011 83.1142 363.838 86.0086 358.475 87.7858C353.113 89.563 344.588 90.4517 332.902 90.4517H323.568V127.317L332.826 135.695H297.54L308.088 126.784V96.2404C307.481 96.1896 307.051 96.1642 306.798 96.1642C303.155 96.1642 299.664 96.9513 296.325 98.5254L295.642 97.1544C299.032 95.2248 302.067 94.26 304.749 94.26H307.481L308.088 94.1839V90.4517C306.924 90.2993 306.14 90.2232 305.735 90.2232C300.322 90.2232 295.997 91.5434 292.759 94.1839L292 93.0413C295.086 87.3542 300.044 84.5106 306.873 84.5106H308.088V47.1886L298.83 37.9723ZM323.568 45.8176V83.9774H324.555L326.528 84.0536C326.73 84.0536 327.059 84.0282 327.514 83.9774V50.0068H335.862C342.337 50.0068 346.89 50.5907 349.521 51.7586C352.202 52.8757 354.479 55.2369 356.35 58.8422C354.479 56.2525 352.126 54.4499 349.293 53.4343C346.511 52.368 342.565 51.8348 337.455 51.8348H329.639V83.9774C339.656 83.9774 346.991 82.5049 351.646 79.5597C356.35 76.6146 358.703 71.9938 358.703 65.6973C358.703 58.6391 356.603 53.5105 352.404 50.3114C348.256 47.1124 341.553 45.5129 332.295 45.5129C329.917 45.5129 327.008 45.6144 323.568 45.8176ZM371.603 46.1222C374.689 47.6456 377.168 50.3368 379.04 54.196C380.912 58.0043 381.848 62.3459 381.848 67.2206C381.848 78.2395 377.598 86.1609 369.099 90.9848C362.674 94.6409 351.696 96.4689 336.165 96.4689C333.585 96.4689 331.41 96.4181 329.639 96.3165V127.774L341.553 141.941H303.535L301.486 139.884H337.227L327.514 128.612V94.26C331.916 94.5139 336.595 94.6409 341.553 94.6409C354.605 94.6409 364.293 92.3305 370.617 87.7096C376.941 83.0888 380.102 76.0052 380.102 66.4589C380.102 62.4982 379.495 59.0707 378.281 56.1763C377.067 53.2312 374.841 49.8798 371.603 46.1222Z" fill="#61CA87"/>
<path d="M456.822 37.9723L448.93 46.9601L461.375 80.1691L464.411 78.4934L453.18 48.4834L461.224 39.191L463.197 40.0288L455.532 48.9404L466.156 77.3509C466.763 76.8939 467.117 76.6146 467.218 76.513L469.723 74.3803C471.24 73.1617 472.202 72.2984 472.606 71.7906C473.922 77.5794 475.945 82.7588 478.677 87.3288C477.21 87.2272 476.148 87.1765 475.49 87.1765C470.684 87.1765 467.168 87.9381 464.942 89.4615L478.677 126.86L490.06 135.695H451.738L462.21 126.86L453.787 104.619C448.222 110.255 443.947 115.612 440.962 120.69L439.217 120.233C442.202 115.257 446.654 109.697 452.573 103.552L453.18 102.791L451.738 99.4394C445.718 104.466 440.735 110.306 436.789 116.958L435.423 114.749C432.792 110.534 429.428 105.736 425.33 100.353L424.571 99.4394C420.676 108.122 418.728 115.181 418.728 120.614C418.728 123.813 419.259 126.53 420.322 128.764C421.435 130.947 424.065 134.629 428.214 139.808C428.568 140.265 429.124 140.976 429.883 141.941H388.905L387.387 139.884H426.013L424.723 138.285C421.384 134.223 419.183 131.074 418.121 128.84C417.109 126.555 416.603 123.889 416.603 120.842C416.603 115.663 418.703 107.945 422.902 97.6876L419.563 94.1839C418.905 95.8088 418.07 98.1953 417.058 101.344L414.554 109.113C413.188 113.276 412.505 116.729 412.505 119.471C412.505 122.315 412.986 124.676 413.947 126.555C414.908 128.434 416.932 130.998 420.018 134.248C420.322 134.553 420.777 135.035 421.384 135.695H383.441C390.676 131.938 396.392 126.885 400.591 120.538C404.841 114.19 409.04 104.39 413.188 91.1372L413.492 90.0708C410.811 87.7858 406.94 86.3894 401.881 85.8816C404.664 81.7178 406.814 77.3763 408.332 72.857C409.04 73.5171 409.47 73.9233 409.622 74.0757L413.037 77.2747C414.2 78.3918 415.591 79.5343 417.21 80.7022L418.576 77.3509L417.666 76.5892C415.136 74.3549 413.011 72.5523 411.291 71.1813L410.608 70.6481L411.822 68.9725C414.504 70.7497 417.084 72.8062 419.563 75.142L429.883 46.6554L421.839 37.9723H456.822ZM438.079 62.4221L429.731 84.5106C430.187 85.0184 430.44 85.3231 430.49 85.4246L433.601 88.9283C435.271 90.7563 437.396 93.5999 439.976 97.4591L440.735 98.6016C442.91 95.8595 445.49 93.1429 448.475 90.4517L438.079 62.4221ZM434.664 53.5866L422.598 85.577C426.443 89.5377 429.757 93.4476 432.539 97.3067L436.03 102.181C436.08 102.232 436.333 102.562 436.789 103.172C437.244 102.715 437.497 102.435 437.547 102.334L438.61 101.039C438.762 100.836 439.04 100.506 439.445 100.049C435.903 94.5647 431.78 89.6138 427.075 85.1961L436.789 59.4515L434.664 53.5866ZM479.284 75.4467C480.397 80.0167 483.18 86.2878 487.632 94.26C486.519 94.1077 485.886 94.0315 485.734 94.0315L479.588 93.4984C476.805 93.2445 474.782 93.1175 473.517 93.1175C473.315 93.1175 472.809 93.1429 471.999 93.1937L484.672 126.936L501.594 141.941H457.657L456.215 139.884H496.51L482.851 127.774L469.343 91.8988C471.063 91.4418 473.036 91.2133 475.262 91.2133C477.994 91.2133 481.03 91.4418 484.368 91.8988L483.458 90.2232C480.22 84.2313 478.045 78.8234 476.932 73.9995L479.284 75.4467Z" fill="#61CA87"/>
<path d="M590.759 37.9723C584.992 40.9682 581.274 43.7103 579.604 46.1984C577.075 50.0575 575.81 55.8717 575.81 63.6407V135.695H562.985L527.168 65.9258V107.285L527.092 110.712L528.002 121.68C529.014 126.758 531.316 130.516 534.908 132.953L535.515 133.486C528.534 131.15 525.043 123.661 525.043 111.017L525.119 103.857V62.1936L521.021 54.196V98.0684C521.021 111.982 521.932 121.096 523.753 125.412C525.574 129.729 529.849 132.877 536.577 134.857L543.179 141.941H502.05L500.836 139.884H538.854L534.908 135.695H499.545C505.717 133.461 509.815 130.465 511.839 126.707C513.862 122.95 514.874 116.501 514.874 107.361V46.4269L504.782 37.9723H543.179L532.404 45.2082L569.132 117.11V107.97L537.64 46.4269L548.264 39.191L549.705 40.6382L540.296 47.0362L569.132 103.857V64.2501C569.132 55.4147 568.398 49.5244 566.931 46.5792C565.515 43.5833 561.974 40.7143 556.307 37.9723H590.759ZM593.415 43.6087L592.049 45.8937C588.154 46.8077 585.498 48.5088 584.081 50.9969C582.715 53.4343 582.032 57.5727 582.032 63.4122V141.941H565.717L564.731 139.884H579.984V64.1739C579.984 57.0142 580.894 52.0379 582.715 49.2451C584.587 46.4015 588.154 44.5227 593.415 43.6087Z" fill="#61CA87"/>
<path d="M682.125 37.9723C681.669 38.8356 681.366 39.4195 681.214 39.7242L676.054 48.8643C674.283 52.1141 672.639 56.1763 671.121 61.051L670.97 61.4319L670.211 60.8987L669.983 59.9085C668.516 54.1198 666.417 50.1083 663.685 47.8741C661.003 45.6398 656.88 44.5227 651.315 44.5227C649.039 44.5227 646.762 44.6243 644.486 44.8274H643.575V127.393L652.53 135.695H617.85L628.474 126.784V50.9969L623.086 50.9208C617.875 50.9208 614.157 51.9617 611.931 54.0436C609.756 56.0748 608.466 59.68 608.061 64.8594H606.088C606.645 58.9184 608.162 54.7799 610.641 52.4441C613.171 50.1083 617.319 48.9404 623.086 48.9404L627.639 49.0166H628.474V45.2844C625.894 44.9797 623.44 44.8274 621.113 44.8274C614.587 44.8274 609.882 46.173 606.999 48.8643C604.115 51.5047 602.521 55.9986 602.218 62.3459H601.307C599.132 55.2877 595.768 47.4171 591.215 38.734L590.759 37.9723H682.125ZM686.906 42.7709C683.415 47.2394 679.747 54.653 675.902 65.0117L675.599 65.7734L673.929 64.3262L674.157 63.6407C677.901 53.1296 681.518 45.8176 685.008 41.7045L685.388 41.2475L686.906 42.7709ZM666.644 54.653C662.749 52.1141 658.196 50.8446 652.985 50.8446C651.821 50.8446 650.607 50.9208 649.342 51.0731L649.646 127.621L661.712 141.941H622.935L621.189 139.884H657.538L647.369 128.231V48.8643L651.467 48.7881C656.375 48.7881 659.84 49.1943 661.864 50.0068C663.938 50.7684 665.531 52.3172 666.644 54.653Z" fill="#61CA87"/>
<path d="M689.334 37.9723H725L714.679 48.1026V81.0069C715.843 81.21 717.209 81.3624 718.777 81.4639V48.8643L727.049 40.6382L728.566 42.0092L720.75 49.7783V81.5401L723.254 81.7686C727.15 82.124 730.919 82.3018 734.561 82.3018C739.823 82.3018 744.351 82.0479 748.145 81.5401V46.5031L738.887 37.9723H773.946L763.474 48.1026V127.469L772.656 135.695H737.749L748.145 126.784V94.4885C743.895 95.5041 739.519 96.0119 735.017 96.0119C730.767 96.0119 726.366 95.7834 721.813 95.3264L720.75 95.2502V127.469L733.271 141.941H694.039L692.066 139.884H729.098L718.777 128.535V93.4984L720.978 93.6507C727.656 94.1585 732.487 94.4124 735.472 94.4124C740.329 94.4124 744.553 93.7523 748.145 92.432V89.69C743.389 90.4009 737.85 90.7563 731.526 90.7563C728.136 90.7563 725.658 90.6802 724.089 90.5278L716.425 89.8423C716.121 89.7915 715.539 89.7408 714.679 89.69V127.469L724.393 135.695H689.334L699.502 126.784V93.4984C695.253 93.4984 691.863 95.174 689.334 98.5254L687.74 97.7637C690.674 94.0569 694.595 92.0004 699.502 91.5942V88.776C693.836 88.776 689.359 90.9341 686.071 95.2502L684.933 94.4885C687.917 87.1765 692.774 82.8603 699.502 81.5401V47.2647L689.334 37.9723ZM777.133 42.2377L769.393 49.7783V127.469L781.989 141.941H742.605L740.708 139.884H777.664L767.495 128.383V49.0166L775.919 40.6382L777.133 42.2377Z" fill="#61CA87"/>
<path d="M867.36 37.9723L866.146 39.4195C860.986 45.7668 856.888 53.0535 853.853 61.2795C853.347 60.1116 852.967 59.2484 852.714 58.6899C849.932 52.5965 846.947 48.6611 843.76 46.8839C840.573 45.1067 834.856 44.218 826.61 44.218C822.816 44.218 818.263 44.345 812.951 44.5989V79.6359H817.807V48.6358C821.652 48.2803 825.32 48.1026 828.81 48.1026C835.235 48.1026 839.966 48.7881 843.001 50.1591C846.036 51.5301 848.743 54.196 851.121 58.1567C850.412 57.6489 849.907 57.2681 849.603 57.0142C845.505 53.7644 842.546 51.8348 840.724 51.2254C838.903 50.6161 835.311 50.3114 829.949 50.3114C828.33 50.3114 825.446 50.413 821.298 50.6161L819.704 50.6923V79.6359H833.667L843.456 66.1543V98.9824L833.667 86.2625H812.951V128.992H817.807V89.8423H834.274L836.247 91.8227H819.704V128.992C830.025 128.992 837.36 128.256 841.711 126.784C846.062 125.311 849.477 122.417 851.955 118.1L855.977 111.169C856.129 110.865 856.433 110.306 856.888 109.494C858.203 115.079 859.822 119.548 861.745 122.899C863.718 126.25 866.955 130.16 871.458 134.629H786.391L797.925 125.793V91.8227C793.676 92.3305 789.831 93.6507 786.391 95.7834L785.328 94.1839C788.414 91.9496 792.613 90.5024 797.925 89.8423V86.2625C797.065 86.1609 796.458 86.1101 796.104 86.1101C790.944 86.1101 786.239 88.0143 781.989 91.8227C784.317 83.6982 789.629 79.6359 797.925 79.6359V47.1124L786.391 37.9723H867.36ZM871.003 43.304L870.471 43.9895C864.299 52.3172 860.176 59.2992 858.102 64.9356L856.812 63.3361C860.202 55.4654 864.578 48.2549 869.94 41.7045L871.003 43.304ZM848.692 68.6678V102.334L846.795 101.344V67.6776L848.692 68.6678ZM880.109 135.086L876.163 141.941H793.296L792.082 139.884H875.176L877.756 135.086C870.471 128.332 865.336 121.122 862.352 113.454L864.78 114.368C867.562 120.868 872.267 127.367 878.895 133.867L880.109 135.086Z" fill="#61CA87"/>
<path d="M940.589 54.9577L939.299 54.196C934.442 51.5047 929.99 50.1591 925.943 50.1591C912.638 50.1591 905.986 63.2853 905.986 89.5377C905.986 108.732 910.109 121.452 918.355 127.698L917.672 128.459C912.613 124.854 908.996 120.132 906.82 114.292C904.696 108.402 903.633 100.455 903.633 90.4517C903.633 62.2697 911.019 48.1787 925.792 48.1787C932.52 48.1787 937.453 50.4384 940.589 54.9577ZM924.35 36.9821C936.643 36.9821 946.458 41.6537 953.793 50.9969C961.179 60.3401 964.872 72.8316 964.872 88.4713C964.872 103.248 961.23 115.028 953.945 123.813C946.711 132.598 936.972 136.99 924.729 136.99C915.066 136.99 906.466 133.892 898.928 127.698C887.849 118.557 882.309 105.025 882.309 87.1003C882.309 71.7653 886.104 59.5785 893.692 50.5399C901.281 41.5014 911.5 36.9821 924.35 36.9821ZM924.35 43.5325C907.25 43.5325 898.701 58.6137 898.701 88.776C898.701 116.653 907.124 130.592 923.97 130.592C931.812 130.592 937.781 126.91 941.879 119.548C945.977 112.134 948.026 101.318 948.026 87.1003C948.026 71.0036 946.053 59.7816 942.107 53.4343C937.958 46.8331 932.039 43.5325 924.35 43.5325ZM948.557 40.8667C955.791 44.3704 961.508 50.3622 965.707 58.8422C969.906 67.3222 972.005 77.1224 972.005 88.2428C972.005 104.593 967.857 117.796 959.56 127.85C951.314 137.904 940.463 142.931 927.006 142.931C918.405 142.931 910.362 140.011 902.874 134.172V133.791C909.147 138.412 917.014 140.722 926.474 140.722C939.173 140.722 949.594 135.924 957.739 126.326C965.884 116.729 969.957 104.466 969.957 89.5377C969.957 78.4172 968.085 68.6932 964.341 60.3655C960.648 52.0379 955.387 45.8176 948.557 41.7045V40.8667Z" fill="#61CA87"/>
<path d="M1065.34 37.9723C1059.58 40.9682 1055.86 43.7103 1054.19 46.1984C1051.66 50.0575 1050.39 55.8717 1050.39 63.6407V135.695H1037.57L1001.75 65.9258V107.285L1001.68 110.712L1002.59 121.68C1003.6 126.758 1005.9 130.516 1009.49 132.953L1010.1 133.486C1003.12 131.15 999.628 123.661 999.628 111.017L999.704 103.857V62.1936L995.606 54.196V98.0684C995.606 111.982 996.516 121.096 998.338 125.412C1000.16 129.729 1004.43 132.877 1011.16 134.857L1017.76 141.941H976.635L975.42 139.884H1013.44L1009.49 135.695H974.13C980.302 133.461 984.4 130.465 986.424 126.707C988.447 122.95 989.459 116.501 989.459 107.361V46.4269L979.366 37.9723H1017.76L1006.99 45.2082L1043.72 117.11V107.97L1012.22 46.4269L1022.85 39.191L1024.29 40.6382L1014.88 47.0362L1043.72 103.857V64.2501C1043.72 55.4147 1042.98 49.5244 1041.52 46.5792C1040.1 43.5833 1036.56 40.7143 1030.89 37.9723H1065.34ZM1068 43.6087L1066.63 45.8937C1062.74 46.8077 1060.08 48.5088 1058.67 50.9969C1057.3 53.4343 1056.62 57.5727 1056.62 63.4122V141.941H1040.3L1039.32 139.884H1054.57V64.1739C1054.57 57.0142 1055.48 52.0379 1057.3 49.2451C1059.17 46.4015 1062.74 44.5227 1068 43.6087Z" fill="#61CA87"/>
<path d="M302.938 186.902C309.135 182.815 316.089 180.772 323.797 180.772C329.396 180.772 333.966 182.035 337.508 184.559C341.049 187.058 342.82 190.299 342.82 194.281C342.82 199.591 339.747 203.144 333.602 204.94V205.37C334.227 205.526 334.982 205.734 335.867 205.994C338.758 205.318 341.023 203.938 342.664 201.856C344.331 199.773 345.164 197.262 345.164 194.32C345.164 190.624 343.641 187.344 340.594 184.481V184.247L341.023 184.598C344.435 187.227 346.141 190.598 346.141 194.711C346.141 200.385 343.198 204.341 337.312 206.58C339.865 207.751 341.844 209.417 343.25 211.578C344.682 213.738 345.398 216.172 345.398 218.879C345.398 222.757 343.992 225.868 341.18 228.21C338.367 230.527 334.617 231.685 329.93 231.685H301.961L307.352 227.078V210.172C305.815 210.172 304.018 210.328 301.961 210.64L301.648 209.508C303.966 209.274 305.867 209.157 307.352 209.157V207.088H306.375C304.917 207.088 303.081 207.192 300.867 207.4L302.586 203.652L303.211 203.691C304.227 203.769 304.995 203.808 305.516 203.808C306.297 203.808 306.909 203.847 307.352 203.925V189.245L302.938 186.902ZM315.164 186.316V203.925C315.451 203.899 315.646 203.886 315.75 203.886L316.453 203.925C316.557 203.925 316.779 203.925 317.117 203.925V187.956C319.357 186.915 321.544 186.394 323.68 186.394C326.128 186.394 328.055 186.837 329.461 187.722C330.893 188.607 332.104 190.117 333.094 192.251L332 191.626C330.047 188.685 327.26 187.214 323.641 187.214C321.609 187.214 319.786 187.787 318.172 188.932V203.925H319.812C324.786 203.925 328.484 203.105 330.906 201.465C333.354 199.799 334.578 197.262 334.578 193.852C334.578 190.858 333.562 188.451 331.531 186.629C329.526 184.781 326.883 183.857 323.602 183.857C320.711 183.857 317.898 184.676 315.164 186.316ZM315.164 207.127V228.64H317.117V209.469C318.966 209.339 320.294 209.274 321.102 209.274C325.424 209.274 328.549 209.677 330.477 210.484C332.43 211.291 333.979 212.827 335.125 215.091H334.656C333.38 213.295 331.779 212.059 329.852 211.382C327.924 210.68 325.099 210.328 321.375 210.328L318.172 210.406V228.64H319.422L325.086 228.444C332.43 227.924 336.102 224.358 336.102 217.746C336.102 213.608 334.891 210.784 332.469 209.274C330.047 207.738 325.516 206.97 318.875 206.97C318.224 206.97 316.987 207.022 315.164 207.127ZM344.422 209.86C347.208 212.02 348.602 215.3 348.602 219.699C348.602 224.124 347.052 227.781 343.953 230.67C340.932 233.481 336.492 234.887 330.633 234.887H304.07L303.406 233.832H328.055C333.419 233.832 337.286 233.286 339.656 232.193C344.917 229.746 347.547 225.49 347.547 219.425C347.547 216.042 346.349 212.97 343.953 210.211L344.422 209.86Z" fill="#7B8BAC"/>
<path d="M395.984 181.592L395.359 182.334C392.703 185.587 390.594 189.323 389.031 193.539C388.771 192.941 388.576 192.498 388.445 192.212C387.013 189.088 385.477 187.071 383.836 186.16C382.195 185.249 379.253 184.794 375.008 184.794C373.055 184.794 370.711 184.859 367.977 184.989V202.949H370.477V187.058C372.456 186.876 374.344 186.785 376.141 186.785C379.448 186.785 381.883 187.136 383.445 187.839C385.008 188.542 386.401 189.908 387.625 191.939C387.26 191.678 387 191.483 386.844 191.353C384.734 189.687 383.211 188.698 382.273 188.386C381.336 188.073 379.487 187.917 376.727 187.917C375.893 187.917 374.409 187.969 372.273 188.073L371.453 188.112V202.949H378.641L383.68 196.038V212.866L378.641 206.346H367.977V228.249H370.477V208.181H378.953L379.969 209.196H371.453V228.249C376.766 228.249 380.542 227.872 382.781 227.117C385.021 226.362 386.779 224.878 388.055 222.666L390.125 219.113C390.203 218.957 390.359 218.67 390.594 218.254C391.271 221.117 392.104 223.408 393.094 225.126C394.109 226.844 395.776 228.848 398.094 231.138H354.305L360.242 226.609V209.196C358.055 209.456 356.076 210.133 354.305 211.226L353.758 210.406C355.346 209.261 357.508 208.519 360.242 208.181V206.346C359.799 206.294 359.487 206.268 359.305 206.268C356.648 206.268 354.227 207.244 352.039 209.196C353.237 205.031 355.971 202.949 360.242 202.949V186.277L354.305 181.592H395.984ZM397.859 184.325L397.586 184.676C394.409 188.945 392.286 192.524 391.219 195.413L390.555 194.594C392.299 190.559 394.552 186.863 397.312 183.505L397.859 184.325ZM386.375 197.327V214.584L385.398 214.076V196.819L386.375 197.327ZM402.547 231.373L400.516 234.887H357.859L357.234 233.832H400.008L401.336 231.373C397.586 227.911 394.943 224.215 393.406 220.284L394.656 220.753C396.089 224.085 398.51 227.416 401.922 230.748L402.547 231.373Z" fill="#7B8BAC"/>
<path d="M446.961 181.592C446.727 182.035 446.57 182.334 446.492 182.49L443.836 187.175C442.924 188.841 442.078 190.923 441.297 193.422L441.219 193.617L440.828 193.344L440.711 192.837C439.956 189.869 438.875 187.813 437.469 186.668C436.089 185.522 433.966 184.95 431.102 184.95C429.93 184.95 428.758 185.002 427.586 185.106H427.117V227.429L431.727 231.685H413.875L419.344 227.117V188.268L416.57 188.229C413.888 188.229 411.974 188.763 410.828 189.83C409.708 190.871 409.044 192.719 408.836 195.374H407.82C408.107 192.329 408.888 190.208 410.164 189.01C411.466 187.813 413.602 187.214 416.57 187.214L418.914 187.253H419.344V185.34C418.016 185.184 416.753 185.106 415.555 185.106C412.195 185.106 409.773 185.796 408.289 187.175C406.805 188.529 405.984 190.832 405.828 194.086H405.359C404.24 190.468 402.508 186.433 400.164 181.982L399.93 181.592H446.961ZM449.422 184.052C447.625 186.342 445.737 190.143 443.758 195.453L443.602 195.843L442.742 195.101L442.859 194.75C444.786 189.362 446.648 185.614 448.445 183.505L448.641 183.271L449.422 184.052ZM438.992 190.143C436.987 188.841 434.643 188.19 431.961 188.19C431.362 188.19 430.737 188.229 430.086 188.308L430.242 227.546L436.453 234.887H416.492L415.594 233.832H434.305L429.07 227.859V187.175L431.18 187.136C433.706 187.136 435.49 187.344 436.531 187.761C437.599 188.151 438.419 188.945 438.992 190.143Z" fill="#7B8BAC"/>
<path d="M485.906 181.592L481.844 186.199L488.25 203.222L489.812 202.363L484.031 186.98L488.172 182.217L489.188 182.646L485.242 187.214L490.711 201.778C491.023 201.543 491.206 201.4 491.258 201.348L492.547 200.255C493.328 199.63 493.823 199.188 494.031 198.927C494.708 201.895 495.75 204.55 497.156 206.892C496.401 206.84 495.854 206.814 495.516 206.814C493.042 206.814 491.232 207.205 490.086 207.986L497.156 227.156L503.016 231.685H483.289L488.68 227.156L484.344 215.755C481.479 218.644 479.279 221.391 477.742 223.993L476.844 223.759C478.38 221.208 480.672 218.358 483.719 215.209L484.031 214.818L483.289 213.1C480.19 215.677 477.625 218.67 475.594 222.08L474.891 220.948C473.536 218.788 471.805 216.328 469.695 213.569L469.305 213.1C467.299 217.551 466.297 221.169 466.297 223.954C466.297 225.594 466.57 226.987 467.117 228.132C467.69 229.251 469.044 231.138 471.18 233.793C471.362 234.028 471.648 234.392 472.039 234.887H450.945L450.164 233.832H470.047L469.383 233.012C467.664 230.93 466.531 229.316 465.984 228.171C465.464 227 465.203 225.633 465.203 224.072C465.203 221.417 466.284 217.46 468.445 212.202L466.727 210.406C466.388 211.239 465.958 212.463 465.438 214.076L464.148 218.059C463.445 220.193 463.094 221.963 463.094 223.369C463.094 224.826 463.341 226.037 463.836 227C464.331 227.963 465.372 229.277 466.961 230.943C467.117 231.099 467.352 231.347 467.664 231.685H448.133C451.857 229.759 454.799 227.169 456.961 223.915C459.148 220.662 461.31 215.638 463.445 208.844L463.602 208.298C462.221 207.127 460.229 206.411 457.625 206.15C459.057 204.016 460.164 201.791 460.945 199.474C461.31 199.812 461.531 200.021 461.609 200.099L463.367 201.739C463.966 202.311 464.682 202.897 465.516 203.495L466.219 201.778L465.75 201.387C464.448 200.242 463.354 199.318 462.469 198.615L462.117 198.342L462.742 197.483C464.122 198.394 465.451 199.448 466.727 200.645L472.039 186.043L467.898 181.592H485.906ZM476.258 194.125L471.961 205.448C472.195 205.708 472.326 205.864 472.352 205.916L473.953 207.712C474.812 208.649 475.906 210.107 477.234 212.085L477.625 212.671C478.745 211.265 480.073 209.873 481.609 208.493L476.258 194.125ZM474.5 189.596L468.289 205.994C470.268 208.025 471.974 210.029 473.406 212.007L475.203 214.506C475.229 214.532 475.359 214.701 475.594 215.013C475.828 214.779 475.958 214.636 475.984 214.584L476.531 213.92C476.609 213.816 476.753 213.647 476.961 213.413C475.138 210.601 473.016 208.064 470.594 205.799L475.594 192.602L474.5 189.596ZM497.469 200.801C498.042 203.144 499.474 206.359 501.766 210.445C501.193 210.367 500.867 210.328 500.789 210.328L497.625 210.055C496.193 209.925 495.151 209.86 494.5 209.86C494.396 209.86 494.135 209.873 493.719 209.899L500.242 227.195L508.953 234.887H486.336L485.594 233.832H506.336L499.305 227.624L492.352 209.235C493.237 209.001 494.253 208.884 495.398 208.884C496.805 208.884 498.367 209.001 500.086 209.235L499.617 208.376C497.951 205.305 496.831 202.532 496.258 200.06L497.469 200.801Z" fill="#7B8BAC"/>
</svg>
